<svg xmlns="http://www.w3.org/2000/svg" version="1.1" xmlns:xlink="http://www.w3.org/1999/xlink" width="512" height="512" x="0" y="0" viewBox="0 0 27.27 51.18" style="enable-background:new 0 0 512 512" xml:space="preserve"><g><g data-name="Layer 2"><g data-name="Layer 1"><g data-name="suitcase or travel bag"><path d="M22.7 48.31H4.57A4.58 4.58 0 0 1 0 43.74V16.29a4.58 4.58 0 0 1 4.57-4.57H22.7a4.58 4.58 0 0 1 4.57 4.57v27.45a4.58 4.58 0 0 1-4.57 4.57zM4.57 13.52a2.77 2.77 0 0 0-2.77 2.77v27.45a2.77 2.77 0 0 0 2.77 2.77H22.7a2.77 2.77 0 0 0 2.77-2.77V16.29a2.77 2.77 0 0 0-2.77-2.77z" fill="#000000" opacity="1" data-original="#000000"></path><path d="M7.06 51.18A2.37 2.37 0 0 1 5 50l-1.24-2.14a.91.91 0 0 1 .78-1.35h5a.91.91 0 0 1 .78 1.35L9.14 50a2.39 2.39 0 0 1-2.08 1.18zm-1-2.87.44.77a.59.59 0 0 0 .52.3.6.6 0 0 0 .52-.3l.46-.77zM18.68 51.18A2.39 2.39 0 0 1 16.6 50l-1.22-2.12a.91.91 0 0 1 .78-1.35h5a.91.91 0 0 1 .84 1.33L20.76 50a2.39 2.39 0 0 1-2.08 1.18zm-1-2.87.44.77a.6.6 0 0 0 1 0l.44-.77zM17.79 13.52H9.48a.9.9 0 0 1-.9-.9V.9a.9.9 0 0 1 .9-.9h8.31a.9.9 0 0 1 .9.9v11.72a.9.9 0 0 1-.9.9zm-7.41-1.8h6.51V1.8h-6.51z" fill="#000000" opacity="1" data-original="#000000"></path><path d="M21 1.8H6.3a.9.9 0 0 1 0-1.8H21a.9.9 0 0 1 0 1.8zM7.06 38.17a.9.9 0 0 1-.9-.9V16.88a.9.9 0 1 1 1.8 0v20.39a.9.9 0 0 1-.9.9zM13.64 42.53a.9.9 0 0 1-.9-.9V21.24a.9.9 0 0 1 1.8 0v20.39a.9.9 0 0 1-.9.9zM20.21 38.17a.9.9 0 0 1-.9-.9V16.88a.9.9 0 0 1 1.8 0v20.39a.9.9 0 0 1-.9.9z" fill="#000000" opacity="1" data-original="#000000"></path></g></g></g></g></svg>