<svg xmlns="http://www.w3.org/2000/svg" version="1.1" xmlns:xlink="http://www.w3.org/1999/xlink" width="512" height="512" x="0" y="0" viewBox="0 0 128 128" style="enable-background:new 0 0 512 512" xml:space="preserve" class="hovered-paths"><g><path d="M44.447 116.421a8.066 8.066 0 0 0-1.255-1.83A6.991 6.991 0 0 0 39 102H15.442L5.9 73.368a2 2 0 0 0-3.8 1.266l10 30A2 2 0 0 0 14 106h25a3 3 0 1 1 0 6H12.062a7.962 7.962 0 0 0-7.428 5.028l-2.491 6.228a2 2 0 1 0 3.714 1.486l2.491-6.228A3.981 3.981 0 0 1 12.062 116h25.23a3.976 3.976 0 0 1 3.577 2.211l3.342 6.683a2 2 0 0 0 3.578-1.789ZM125.856 123.256l-2.491-6.228a7.962 7.962 0 0 0-7.427-5.028H89a3 3 0 1 1 0-6h25a2 2 0 0 0 1.9-1.367l10-30a2 2 0 0 0-3.795-1.266L112.558 102H89a6.991 6.991 0 0 0-4.192 12.592 8.066 8.066 0 0 0-1.255 1.83l-3.342 6.678a2 2 0 0 0 3.578 1.789l3.342-6.683A3.976 3.976 0 0 1 90.708 116h25.229a3.981 3.981 0 0 1 3.714 2.515l2.491 6.228a2 2 0 1 0 3.714-1.487Z" fill="#3b8029" opacity="1" data-original="#000000" class="hovered-path"></path><path d="M71.857 113.257A2 2 0 0 0 70 112V98h25a6 6 0 0 0 0-12H66V48.417L101.341 36H124a2 2 0 0 0 1.063-3.694C120.117 29.2 76.383 2 64 2S7.883 29.2 2.938 32.306A2 2 0 0 0 4 36h21.667L62 48.43V86H33a6 6 0 0 0 0 12h25v14a2 2 0 0 0-1.857 1.257l-4 10A2 2 0 0 0 54 126h20a2 2 0 0 0 1.857-2.743ZM73.638 36 66 42.62V36h7.638ZM62 42.62 54.362 36H62v6.62Zm11.25-.99 6.5-5.63h9.527ZM64 6c8.3 0 37.027 16.358 52.936 26H11.064C26.972 22.358 55.694 6 64 6ZM38.026 36h10.227l6.671 5.781ZM31 92a2 2 0 0 1 2-2h62a2 2 0 0 1 0 4H33a2 2 0 0 1-2-2Zm31 6h4v14h-4V98Zm-5.046 24 2.4-6h9.292l2.4 6H56.954Z" fill="#3b8029" opacity="1" data-original="#000000" class="hovered-path"></path><path d="M66 10a2 2 0 0 0-2-2c-.888 0-3.588 0-13.846 4.789a2 2 0 0 0 1.692 3.625C60.378 12.43 63.188 12 64 12a2 2 0 0 0 2-2ZM44.1 15.738q-1.423.718-2.9 1.484a2 2 0 0 0 1.84 3.553q1.461-.757 2.866-1.467a2 2 0 1 0-1.806-3.57Z" fill="#3b8029" opacity="1" data-original="#000000" class="hovered-path"></path></g></svg>