<svg xmlns="http://www.w3.org/2000/svg" version="1.1" xmlns:xlink="http://www.w3.org/1999/xlink" width="512" height="512" x="0" y="0" viewBox="0 0 511.999 511" style="enable-background:new 0 0 512 512" xml:space="preserve" class=""><g><path d="M149.793 223.828H87.824c-5.52 0-9.996-4.476-9.996-10v-52.516c0-5.523 4.477-10 9.996-10h61.969c5.52 0 10 4.477 10 10v52.516c0 5.524-4.48 10-10 10zm-51.969-20h41.969v-32.516H97.824zM252.762 223.828h-61.965c-5.524 0-10-4.476-10-10v-52.516c0-5.523 4.476-10 10-10h61.965c5.523 0 10 4.477 10 10v52.516c0 5.524-4.477 10-10 10zm-51.965-20h41.965v-32.516h-41.965zM149.793 307.121H87.824c-5.52 0-9.996-4.48-9.996-10v-52.52c0-5.519 4.477-10 9.996-10h61.969c5.52 0 10 4.481 10 10v52.52c0 5.524-4.48 10-10 10zm-51.969-20h41.969v-32.52H97.824zM252.762 307.121h-61.965c-5.524 0-10-4.48-10-10v-52.52c0-5.519 4.476-10 10-10h61.965c5.523 0 10 4.481 10 10v52.52c0 5.524-4.477 10-10 10zm-51.965-20h41.965v-32.52h-41.965zM274.488 459.926c-.648 0-1.308-.07-1.949-.2-.64-.132-1.27-.32-1.871-.57a9.623 9.623 0 0 1-1.727-.922 9.508 9.508 0 0 1-1.523-1.238 10.037 10.037 0 0 1-2.156-3.25c-.25-.601-.442-1.23-.57-1.871a9.653 9.653 0 0 1 0-3.91c.117-.63.32-1.258.57-1.867a10.11 10.11 0 0 1 2.156-3.243c.46-.46.973-.878 1.523-1.25a9.877 9.877 0 0 1 1.727-.921c.602-.25 1.23-.438 1.871-.567a9.796 9.796 0 0 1 3.902 0c.641.13 1.27.317 1.88.567a10.093 10.093 0 0 1 4.491 3.691c.36.54.66 1.121.91 1.723.25.609.45 1.238.567 1.867a9.86 9.86 0 0 1 .203 1.96c0 .65-.07 1.31-.203 1.95a9.228 9.228 0 0 1-.566 1.871 10.055 10.055 0 0 1-2.16 3.25c-.461.461-.973.879-1.524 1.238-.539.36-1.117.672-1.719.922-.61.25-1.238.442-1.879.57-.64.13-1.3.2-1.953.2zm0 0" fill="#000000" opacity="1" data-original="#000000" class=""></path><path d="M502 115.527H338.32c-.3-.27-.62-.527-.96-.765L176.546 2.305a10 10 0 0 0-11.461 0L4.27 114.765c-4.36 3.047-5.567 8.973-2.754 13.485l22.746 36.46a10.019 10.019 0 0 0 6.492 4.509c2.683.543 5.484-.04 7.734-1.614l1.203-.843v237.425H20.047c-5.524 0-10 4.481-10 10v70.684c0 5.524 4.476 10 10 10H502c5.523 0 10-4.476 10-10V125.527c0-5.52-4.477-10-10-10zM35.64 145.168l-12.132-19.45L170.816 22.7l147.309 103.02-12.137 19.449-129.43-90.813a9.904 9.904 0 0 0-.66-.421 9.984 9.984 0 0 0-5.082-1.391c-2.011 0-4.02.605-5.746 1.812zm24.051 7.559 111.121-77.965 111.125 77.965v251.46h-63.414V331.41c0-5.523-4.476-10-10-10h-75.418c-5.523 0-10 4.477-10 10v72.778H59.691zm138.832 251.46h-55.418v-62.78h55.418zM30.047 459.923h201.367c5.524 0 10-4.477 10-10s-4.476-10-10-10H30.047v-15.735h284.11v50.684H30.046zm304.11-91.824h125.628v22.082H334.156zm125.628-20H334.156V326.02h125.63zM334.156 410.18h125.63v22.078h-125.63zm125.63-104.16h-125.63v-52.137h125.63zM334.155 474.87v-22.613h125.63v22.613zm157.844 0h-12.215V243.883c0-5.52-4.48-10-10-10H324.156c-5.523 0-10 4.48-10 10v160.305h-12.219v-237.43l1.204.844a9.991 9.991 0 0 0 5.742 1.812 9.992 9.992 0 0 0 8.484-4.707l18.207-29.18H492zm0 0" fill="#000000" opacity="1" data-original="#000000" class=""></path></g></svg>