<svg width="21" height="20" viewBox="0 0 21 20" fill="none" xmlns="http://www.w3.org/2000/svg">
<path d="M4.875 0C5.04076 0 5.19973 0.065848 5.31694 0.183058C5.43415 0.300269 5.5 0.45924 5.5 0.625V1.25H15.5V0.625C15.5 0.45924 15.5658 0.300269 15.6831 0.183058C15.8003 0.065848 15.9592 0 16.125 0C16.2908 0 16.4497 0.065848 16.5669 0.183058C16.6842 0.300269 16.75 0.45924 16.75 0.625V1.25H18C18.663 1.25 19.2989 1.51339 19.7678 1.98223C20.2366 2.45107 20.5 3.08696 20.5 3.75V17.5C20.5 18.163 20.2366 18.7989 19.7678 19.2678C19.2989 19.7366 18.663 20 18 20H3C2.33696 20 1.70107 19.7366 1.23223 19.2678C0.763392 18.7989 0.5 18.163 0.5 17.5V3.75C0.5 3.08696 0.763392 2.45107 1.23223 1.98223C1.70107 1.51339 2.33696 1.25 3 1.25H4.25V0.625C4.25 0.45924 4.31585 0.300269 4.43306 0.183058C4.55027 0.065848 4.70924 0 4.875 0V0ZM3 2.5C2.66848 2.5 2.35054 2.6317 2.11612 2.86612C1.8817 3.10054 1.75 3.41848 1.75 3.75V17.5C1.75 17.8315 1.8817 18.1495 2.11612 18.3839C2.35054 18.6183 2.66848 18.75 3 18.75H18C18.3315 18.75 18.6495 18.6183 18.8839 18.3839C19.1183 18.1495 19.25 17.8315 19.25 17.5V3.75C19.25 3.41848 19.1183 3.10054 18.8839 2.86612C18.6495 2.6317 18.3315 2.5 18 2.5H3Z" fill="black"/>
<path d="M3.625 5C3.625 4.83424 3.69085 4.67527 3.80806 4.55806C3.92527 4.44085 4.08424 4.375 4.25 4.375H16.75C16.9158 4.375 17.0747 4.44085 17.1919 4.55806C17.3092 4.67527 17.375 4.83424 17.375 5V6.25C17.375 6.41576 17.3092 6.57473 17.1919 6.69194C17.0747 6.80915 16.9158 6.875 16.75 6.875H4.25C4.08424 6.875 3.92527 6.80915 3.80806 6.69194C3.69085 6.57473 3.625 6.41576 3.625 6.25V5ZM11.75 10C11.75 9.66848 11.8817 9.35054 12.1161 9.11612C12.3505 8.8817 12.6685 8.75 13 8.75H19.25V11.25H13C12.6685 11.25 12.3505 11.1183 12.1161 10.8839C11.8817 10.6495 11.75 10.3315 11.75 10ZM1.75 12.5H6.75C7.08152 12.5 7.39946 12.6317 7.63388 12.8661C7.8683 13.1005 8 13.4185 8 13.75C8 14.0815 7.8683 14.3995 7.63388 14.6339C7.39946 14.8683 7.08152 15 6.75 15H1.75V12.5Z" fill="black"/>
</svg>
