<svg width="20" height="22" viewBox="0 0 20 22" fill="none" xmlns="http://www.w3.org/2000/svg">
<path d="M10.87 12.06C10.64 11.68 10.5 11.23 10.5 10.75C10.5 9.37 11.62 8.25 13 8.25H14C15.51 8.25 16 7.25 16 7.25C16 7.25 16.55 13.25 13 13.25C12.51 13.25 12.06 13.11 11.68 12.87C11.44 13.51 11.09 14.63 10.92 15.83C12.18 16.05 13.2 16.72 13.69 17.6C15.38 16.43 16.5 14.47 16.5 12.25H19.5C19.5 17.49 15.24 21.75 10 21.75C4.76 21.75 0.5 17.49 0.5 12.25C0.5 7.01 4.76 2.75 10 2.75V0.25L14 4.25L10 8.25V5.75C6.42 5.75 3.5 8.67 3.5 12.25C3.5 14.46 4.61 16.42 6.31 17.6C6.82 16.68 7.94 15.98 9.29 15.8C9.2 15.11 9.03 14.38 8.8 13.77C8.45 14.07 8 14.25 7.5 14.25C6.4 14.25 5.5 13.35 5.5 12.25V11.26C5.5 10.7 5.31 10.17 5 9.75C5 9.75 9.45 9.52 9.5 12.25C9.5 12.54 9.44 12.81 9.33 13.05C8.91 12.73 8.47 12.45 8 12.25C8.58 12.68 9.37 13.62 10 14.85C10.67 13.23 11.68 11.58 13 10.25C12.24 10.77 11.53 11.37 10.87 12.06Z" fill="black"/>
</svg>
