<svg xmlns="http://www.w3.org/2000/svg" version="1.1" xmlns:xlink="http://www.w3.org/1999/xlink" width="512" height="512" x="0" y="0" viewBox="0 0 442.882 442" style="enable-background:new 0 0 512 512" xml:space="preserve" class=""><g><path d="M351.953 26.957c.07-10.527-.355-16.738-.394-17.367A9.845 9.845 0 0 0 341.715.44H10.254A9.846 9.846 0 0 0 .406 9.59c-.11 1.515-2.558 37.691 6.004 88.2 7.88 46.69 27.188 114.835 74.067 174.335a9.848 9.848 0 0 0 7.726 3.754h175.578a9.847 9.847 0 0 0 7.739-3.754 333.869 333.869 0 0 0 29.175-43.895h41.266c53.785.024 98.129-42.16 100.797-95.878 2.668-53.723-37.281-100.086-90.805-105.395zm-6.398 70.832a458.626 458.626 0 0 0 2.52-16.738c24.679 2.496 43.073 23.902 41.827 48.68-1.25 24.773-21.699 44.226-46.504 44.23h-17.93a433.635 433.635 0 0 0 20.087-76.172zm-86.649 158.395H93.06c-42.075-55.176-59.68-117.836-67.114-161.122a423.256 423.256 0 0 1-6.172-74.93h312.438a422.155 422.155 0 0 1-6.172 74.93c-7.394 43.286-25.039 105.946-67.113 161.122zm83.031-47.645h-31.054a347.234 347.234 0 0 0 6.765-14.926h25.75c35.274.024 64.383-27.586 66.22-62.812 1.839-35.227-24.243-65.719-59.329-69.364.461-5.238.809-10.16 1.063-14.769 42.765 4.918 74.253 42.36 71.77 85.336-2.481 42.973-38.079 76.539-81.122 76.496zm0 0" fill="#3B8029" opacity="1" data-original="#000000" class=""></path></g></svg>
