<!DOCTYPE svg PUBLIC "-//W3C//DTD SVG 1.1//EN" "http://www.w3.org/Graphics/SVG/1.1/DTD/svg11.dtd">
<!-- Uploaded to: SVG Repo, www.svgrepo.com, Transformed by: SVG Repo Mixer Tools -->
<svg fill="#2870cc" version="1.1" id="Capa_1" xmlns="http://www.w3.org/2000/svg" xmlns:xlink="http://www.w3.org/1999/xlink" width="800px" height="800px" viewBox="0 0 571.688 571.688" xml:space="preserve">
<g id="SVGRepo_bgCarrier" stroke-width="0"/>
<g id="SVGRepo_tracerCarrier" stroke-linecap="round" stroke-linejoin="round"/>
<g id="SVGRepo_iconCarrier"> <g> <g id="Layer_1_146_"> <g> <g> <path d="M174.919,6.619c-62.475,0-91.8,47.175-99.45,109.65L0.244,525.544c-1.275,7.65,2.55,15.3,8.925,20.4 c3.825,2.55,7.65,3.824,11.475,3.824c3.825,0,7.65-1.274,10.2-2.55l22.95-12.75c10.2-6.375,21.675-8.925,33.15-8.925 c12.75,0,24.225,3.825,34.425,10.2l40.8,25.5c3.825,2.55,7.65,3.825,11.475,3.825c3.825,0,7.65-1.275,11.475-3.825l38.25-25.5 c10.2-7.65,22.95-10.2,35.7-10.2c11.475,0,21.675,2.55,31.875,8.925l25.5,14.025c3.825,1.274,6.375,2.55,10.2,2.55 s7.65-1.275,11.476-3.825c6.375-3.825,10.199-12.75,8.925-20.399l-75.226-409.275C266.719,53.794,237.394,6.619,174.919,6.619z M174.919,262.894c-44.625,0-56.1-48.45-56.1-109.65c0-61.2,11.475-108.375,56.1-108.375s56.1,48.45,56.1,108.375 C231.019,213.169,219.544,262.894,174.919,262.894z"/> </g> <path d="M496.22,116.269c-7.65-62.475-35.7-109.65-99.45-109.65c-56.1,0-84.149,36.975-95.625,87.975 c1.275,5.1,2.55,11.475,2.55,16.575l75.226,410.55c1.274,10.2-1.275,20.4-5.101,30.601l12.75,7.649 c3.825,2.55,7.65,3.825,11.476,3.825s7.649-1.275,11.475-3.825l38.25-25.5c10.2-7.649,22.95-10.2,35.7-10.2 c11.475,0,21.675,2.551,31.875,8.926l25.5,14.024c3.825,1.275,6.375,2.55,10.2,2.55s7.649-1.274,11.475-3.824 c6.375-3.825,10.2-12.75,8.925-20.4L496.22,116.269z M396.77,262.894c-44.625,0-56.1-48.45-56.1-109.65 c0-61.2,11.475-108.375,56.1-108.375s56.101,48.45,56.101,108.375C452.87,213.169,441.395,262.894,396.77,262.894z"/> </g> </g> </g> </g>
</svg>