<svg xmlns="http://www.w3.org/2000/svg" version="1.1" xmlns:xlink="http://www.w3.org/1999/xlink" width="512" height="512" x="0" y="0" viewBox="0 0 419.413 419.413" style="enable-background:new 0 0 512 512" xml:space="preserve" class=""><g><path d="M159.04 304.427h33.707v50.56H159.04zM120.427 0h80v40.747h-80zM106.773 304.427h33.28v50.56h-33.28zM314.773 60.16H105.707L6.293 231.253H413.12z" fill="#000000" opacity="1" data-original="#000000" class=""></path><path d="m48.533 250.667 1.707 168.747h192V295.04a9.387 9.387 0 0 1 9.6-9.813h72.747a9.387 9.387 0 0 1 9.813 9.814v124.373h34.133V250.667h-320zm163.2 44.373v69.547a9.173 9.173 0 0 1-8.96 9.173h-105.6c-5.054.353-9.438-3.457-9.791-8.511a9.13 9.13 0 0 1-.022-.662l.213-69.547a9.386 9.386 0 0 1 9.814-9.813h105.387a9.172 9.172 0 0 1 8.959 9.813z" fill="#000000" opacity="1" data-original="#000000" class=""></path></g></svg>