<svg xmlns="http://www.w3.org/2000/svg" version="1.1" xmlns:xlink="http://www.w3.org/1999/xlink" width="512" height="512" x="0" y="0" viewBox="0 0 64 64" style="enable-background:new 0 0 512 512" xml:space="preserve" class=""><g><path d="M55.71 20.5h-2l-16.4-12a4.76 4.76 0 0 0 .07-.66 5.36 5.36 0 1 0-10.72 0 4.76 4.76 0 0 0 .07.66l-16.4 12h-2a5.8 5.8 0 0 0-5.83 5.79v29.42a5.8 5.8 0 0 0 5.79 5.79h47.42a5.8 5.8 0 0 0 5.79-5.79V26.29a5.8 5.8 0 0 0-5.79-5.79zM32 5.5a2.36 2.36 0 1 1-2.36 2.36A2.36 2.36 0 0 1 32 5.5zm-4 5.83a5.28 5.28 0 0 0 8.08 0L48.6 20.5H15.4zm30.5 44.38a2.79 2.79 0 0 1-2.79 2.79H8.29a2.79 2.79 0 0 1-2.79-2.79V26.29a2.79 2.79 0 0 1 2.79-2.79h47.42a2.79 2.79 0 0 1 2.79 2.79z" data-name="Layer 20" fill="#000000" opacity="1" data-original="#000000" class=""></path></g></svg>