<svg xmlns="http://www.w3.org/2000/svg" version="1.1" xmlns:xlink="http://www.w3.org/1999/xlink" width="512" height="512" x="0" y="0" viewBox="0 0 512.002 512" style="enable-background:new 0 0 512 512" xml:space="preserve" class=""><g><path d="M319.996 281.61h-51.2V153.612h204.802c7.062.004 12.793-5.718 12.8-12.785V115.211a12.818 12.818 0 0 0-7.351-11.574L261.449 1.238a12.636 12.636 0 0 0-10.902 0L32.949 103.637a12.8 12.8 0 0 0-7.347 11.574v25.602c-.004 7.062 5.718 12.792 12.78 12.8h204.813V281.61h-51.199c-7.066 0-12.797 5.73-12.797 12.801 0 7.07 5.73 12.8 12.797 12.8h51.2v128h-12.798c-7.07 0-12.8 5.731-12.8 12.798 0 7.07 5.73 12.8 12.8 12.8h51.2c7.07 0 12.8-5.73 12.8-12.8 0-7.067-5.73-12.797-12.8-12.797h-12.801v-128h51.2c7.07 0 12.8-5.73 12.8-12.8 0-7.071-5.73-12.802-12.8-12.802zM127.352 367.16a12.82 12.82 0 0 0-12.153-8.75H47.63L24.96 290.363c-2.238-6.71-9.488-10.336-16.2-8.101-6.71 2.238-10.335 9.488-8.1 16.199l24.245 72.75-24.25 72.746c-2.219 6.711 1.403 13.95 8.102 16.2 1.305.437 2.668.655 4.043.652a12.847 12.847 0 0 0 12.148-8.75l22.688-68.047h58.347l22.676 68.047a12.847 12.847 0 0 0 12.14 8.75 12.76 12.76 0 0 0 4.052-.649c6.699-2.25 10.316-9.492 8.097-16.2zM487.09 371.207l24.25-72.746c2.238-6.711-1.39-13.965-8.098-16.2-6.71-2.238-13.965 1.391-16.199 8.098l-22.676 68.051h-67.57a12.819 12.819 0 0 0-12.149 8.75l-25.601 76.797c-2.219 6.711 1.402 13.95 8.101 16.2 1.305.437 2.672.656 4.047.652a12.852 12.852 0 0 0 12.153-8.75l22.672-68.051h58.34l22.683 68.047a12.846 12.846 0 0 0 12.152 8.754 12.638 12.638 0 0 0 4.051-.653c6.7-2.25 10.316-9.488 8.098-16.199zm0 0" fill="#000000" opacity="1" data-original="#000000" class=""></path></g></svg>