<svg xmlns="http://www.w3.org/2000/svg" version="1.1" xmlns:xlink="http://www.w3.org/1999/xlink" width="512" height="512" x="0" y="0" viewBox="0 0 412.8 412.8" style="enable-background:new 0 0 512 512" xml:space="preserve" class=""><g><path d="M378.4 225.6 304 251.2 274 234v-54.8l30-17.2 74.4 25.6c5.2 2 11.2-1.2 12.8-6.4 2-5.2-1.2-11.2-6.4-12.8l-57.6-19.6 54-31.2c4.8-2.8 6.4-9.2 3.6-14-2.8-4.8-9.2-6.4-14-3.6l-54 31.2 11.6-59.6c1.2-5.6-2.4-10.8-8-12-5.6-1.2-10.8 2.4-12 8l-15.2 77.2-30 17.2-22.8-13.2-.4-.4-23.2-13.6v-34.4L276 48.8c4.4-3.6 4.8-10 .8-14.4-3.6-4.4-10-4.8-14.4-.8l-45.6 40V10.4c0-5.6-4.4-10.4-10.4-10.4-5.6 0-10.4 4.4-10.4 10.4v62.4l-45.6-39.6c-4.4-3.6-10.8-3.2-14.4.8-3.6 4.4-3.2 10.8.8 14.4L196 100v34.4L172.8 148l-23.2 13.6-30-17.2-15.2-77.2c-1.2-5.6-6.4-9.2-12-8-5.6 1.2-9.2 6.4-8 12L96 130.8 42 99.6c-4.8-2.8-11.2-1.2-14 3.6s-1.2 11.2 3.6 14l54 31.2L28 168c-5.2 2-8.4 7.6-6.4 12.8s7.6 8.4 12.8 6.4l74.4-25.6 30 17.2v54.8h.4l-30 17.2-74.4-25.6c-5.2-2-11.2 1.2-12.8 6.4-2 5.2 1.2 11.2 6.4 12.8L86 264l-54 31.2c-4.8 2.8-6.4 9.2-3.6 14 2.8 4.8 9.2 6.4 14 3.6l54-31.2-11.6 59.6c-1.2 5.6 2.4 10.8 8 12 5.6 1.2 10.8-2.4 12-8L120 268l30-17.2 23.6 13.6 23.2 13.6v34.4L137.6 364c-4.4 3.6-4.8 10-.8 14.4 3.6 4.4 10 4.8 14.4.8l45.6-40v63.2c0 5.6 4.4 10.4 10.4 10.4 5.6 0 10.4-4.4 10.4-10.4V340l45.6 40c4.4 3.6 10.8 3.2 14.4-.8 3.6-4.4 3.2-10.8-.8-14.4l-60-52v-34.4l23.2-13.6 23.2-13.6 30 17.2 15.2 77.2c1.2 5.6 6.4 9.2 12 8 5.6-1.2 9.2-6.4 8-12L316.8 282l54 31.2c4.8 2.8 11.2 1.2 14-3.6 2.8-4.8 1.2-11.2-3.6-14l-54-31.2 57.6-19.6c5.2-2 8.4-7.6 6.4-12.8-2-5.2-7.6-8.4-12.8-6.4zm-126-19.2v27.2l-23.2 13.6-22.8 13.2-23.6-13.6-23.2-13.6v-54l23.2-13.6L206 152l23.2 13.6.4.4 22.8 13.2v27.2z" fill="#000000" opacity="1" data-original="#000000"></path></g></svg>