<svg xmlns="http://www.w3.org/2000/svg" version="1.1" xmlns:xlink="http://www.w3.org/1999/xlink" width="512" height="512" x="0" y="0" viewBox="0 0 512 512" style="enable-background:new 0 0 512 512" xml:space="preserve" class="hovered-paths"><g><path d="M470.592 108.716V79.139H361.494l38.077-46.501-23.211-19.006-53.64 65.507h-85.314C228.184 34.036 188.196 0 140.408 0c-54.589 0-99 44.411-99 99s44.411 99 99 99c16.981 0 32.976-4.3 46.957-11.864l95.043 116.538V482h-59.666v30h149.333v-30h-59.667V302.674zm-307.31.423h91.85c-6.512 9.912-10.253 21.093-10.674 32.187-.565 14.871 5.052 28.395 15.412 37.104 7.769 6.53 17.743 9.969 28.384 9.969 3.551 0 7.176-.383 10.817-1.162 13.385-2.863 26.035-10.718 35.618-22.119 9.585-11.401 15.149-25.212 15.67-38.891.228-5.993-.565-11.759-2.251-17.088h83.427L297.408 273.6zm157.099 15.948c-.264 6.943-3.419 14.497-8.655 20.726-5.235 6.228-12.135 10.634-18.93 12.087-3.192.683-9.208 1.274-13.621-2.435-7.627-6.412-5.798-22.172 3.915-33.726 6.696-7.965 16.004-12.582 23.641-12.582 3.44 0 6.542.938 8.911 2.929 4.412 3.71 4.863 9.738 4.739 13.001zM140.408 168c-38.047 0-69-30.953-69-69s30.953-69 69-69c31.144 0 57.522 20.745 66.073 49.139h-82.256v29.577l43.676 53.554a68.59 68.59 0 0 1-27.493 5.73z" fill="#3b8029" opacity="1" data-original="#000000" class="hovered-path"></path></g></svg>