<svg width="52" height="52" viewBox="0 0 52 52" fill="none" xmlns="http://www.w3.org/2000/svg">
<path d="M26.2619 0.166687C12.2319 0.166687 0.845215 11.74 0.845215 26C0.845215 40.26 12.2319 51.8334 26.2619 51.8334C40.2919 51.8334 51.6786 40.26 51.6786 26C51.6786 11.74 40.2919 0.166687 26.2619 0.166687ZM26.2619 46.6667C15.0531 46.6667 5.92855 37.3925 5.92855 26C5.92855 14.6075 15.0531 5.33335 26.2619 5.33335C37.4706 5.33335 46.5952 14.6075 46.5952 26C46.5952 37.3925 37.4706 46.6667 26.2619 46.6667Z" fill="white"/>
<path d="M38.9702 20.8334H27.304L28.7781 12.0242V11.5075C28.7527 10.8359 28.4731 10.19 28.0156 9.69919L26.2619 7.91669L14.5702 20.8334C13.884 21.505 13.5027 22.435 13.5535 23.4167V36.3334C13.5535 39.175 15.841 41.5 18.6369 41.5H32.616C34.0394 41.5775 35.361 40.7509 35.9202 39.4334L41.2577 26.775C41.461 26.3875 41.5627 25.9225 41.5119 25.4834V23.4167C41.5119 21.9959 40.3681 20.8334 38.9702 20.8334Z" fill="white"/>
</svg>
