<svg xmlns="http://www.w3.org/2000/svg" version="1.1" xmlns:xlink="http://www.w3.org/1999/xlink" width="512" height="512" x="0" y="0" viewBox="0 0 512 512" style="enable-background:new 0 0 512 512" xml:space="preserve" class=""><g><g data-name="Layer 2"><g data-name="Layer 1"><path d="M437 0H75A75.22 75.22 0 0 0 0 75v362a75.22 75.22 0 0 0 75 75h362a75.22 75.22 0 0 0 75-75V75a75.22 75.22 0 0 0-75-75zm55 437a55.21 55.21 0 0 1-55 55H75a55.21 55.21 0 0 1-55-55V75a55.21 55.21 0 0 1 55-55h362a55.21 55.21 0 0 1 55 55z" fill="#000000" opacity="1" data-original="#000000" class=""></path><path d="M347.57 120.61q-31.63-28.12-86.79-28.13H138.39V412.4h64.16v-116h58.23q55.14 0 86.79-27.91t31.64-73.82q0-45.94-31.64-74.06zm-46.14 111.73Q287.58 247 260.78 247h-58.23V142h58.23q27 0 40.76 15.05t13.73 38.12q0 22.56-13.84 37.17z" fill="#000000" opacity="1" data-original="#000000" class=""></path></g></g></g></svg>