<svg xmlns="http://www.w3.org/2000/svg" version="1.1" xmlns:xlink="http://www.w3.org/1999/xlink" width="512" height="512" x="0" y="0" viewBox="0 0 512 512" style="enable-background:new 0 0 512 512" xml:space="preserve" class=""><g><g data-name="Layer 2"><g data-name="Layer 1"><circle cx="256" cy="256" r="256" fill="#3B8029" opacity="1" data-original="#252A3F" class=""></circle><circle cx="256" cy="256" r="231.71" fill="#FFFFFF" opacity="1" data-original="#FFFFFF" class=""></circle><path fill="#3B8029" d="M281.71 292.55h-46.49v70.92q0 15.21-7.17 23.07a23.5 23.5 0 0 1-18.12 7.86q-11.44 0-18.46-7.77t-7-22.82V170.7q0-16.75 7.69-23.93t24.44-7.17h65.11q28.88 0 44.43 4.44a66.3 66.3 0 0 1 26.58 14.18 64 64 0 0 1 17 24.27 85.51 85.51 0 0 1 5.81 32.3q0 38.28-23.58 58t-70.24 19.76zM269.4 177.71h-34.18v76.56h34.18q18 0 30-3.76t18.37-12.31q6.32-8.53 6.32-22.38 0-16.57-9.74-27-10.94-11.11-44.95-11.11z" data-name="P" opacity="1" data-original="#252A3F" class=""></path></g></g></g></svg>