<svg xmlns="http://www.w3.org/2000/svg" version="1.1" xmlns:xlink="http://www.w3.org/1999/xlink" width="512" height="512" x="0" y="0" viewBox="0 0 64 64" style="enable-background:new 0 0 512 512" xml:space="preserve" class="hovered-paths"><g><path d="M53.75 10.25A4.64 4.64 0 0 0 50 8.91 10.67 10.67 0 0 0 43.47 12l-7.83 7.83-20.24-4.45a3.64 3.64 0 0 0-3.36 1l-2.37 2.36a2.65 2.65 0 0 0 .68 4.26l14.74 7.39-5.75 5.75-6.06.61A2.65 2.65 0 0 0 12 41.52l6.12 4.34L22.48 52a2.65 2.65 0 0 0 4.79-1.27l.61-6.06 5.75-5.75L41 53.65a2.65 2.65 0 0 0 4.24.69L47.63 52a3.63 3.63 0 0 0 1-3.36l-4.44-20.28L52 20.53A10.67 10.67 0 0 0 55.09 14a4.63 4.63 0 0 0-1.34-3.75zM49.9 18.4l-8 8a2.63 2.63 0 0 0-.72 2.44l4.47 20.43a.64.64 0 0 1-.17.6l-2 2-7.39-14.74a2.65 2.65 0 0 0-1.94-1.43 2.54 2.54 0 0 0-.42 0 2.65 2.65 0 0 0-1.87.78l-6.18 6.18a2.65 2.65 0 0 0-.76 1.61l-.53 5.25-3.83-5.41a2.64 2.64 0 0 0-.63-.62l-5.4-3.83 5.25-.53a2.65 2.65 0 0 0 1.61-.76l6.18-6.18a2.65 2.65 0 0 0-.69-4.24l-14.75-7.43 2-2a.66.66 0 0 1 .6-.17l20.43 4.47a2.63 2.63 0 0 0 2.44-.71l8-8a7.66 7.66 0 0 1 4.72-2.21 1.65 1.65 0 0 1 1.79 1.79 7.66 7.66 0 0 1-2.22 4.72z" fill="#000000" opacity="1" data-original="#000000" class="hovered-path"></path></g></svg>