<svg width="42" height="42" viewBox="0 0 42 42" fill="none" xmlns="http://www.w3.org/2000/svg">
<path d="M20.6613 3.5C11.1571 3.5 3.44354 11.34 3.44354 21C3.44354 30.66 11.1571 38.5 20.6613 38.5C30.1655 38.5 37.879 30.66 37.879 21C37.879 11.34 30.1655 3.5 20.6613 3.5ZM20.6613 35C13.0683 35 6.88709 28.7175 6.88709 21C6.88709 13.2825 13.0683 7 20.6613 7C28.2543 7 34.4355 13.2825 34.4355 21C34.4355 28.7175 28.2543 35 20.6613 35Z" fill="#0F80E8"/>
<path d="M29.2702 17.5H21.3672L22.3658 11.5325V11.1825C22.3486 10.7275 22.1592 10.29 21.8493 9.9575L20.6613 8.75L12.7411 17.5C12.2762 17.955 12.018 18.585 12.0524 19.25V28C12.0524 29.925 13.602 31.5 15.496 31.5H24.9657C25.9299 31.5525 26.8252 30.9925 27.204 30.1L30.8197 21.525C30.9575 21.2625 31.0264 20.9475 30.9919 20.65V19.25C30.9919 18.2875 30.2171 17.5 29.2702 17.5Z" fill="#0F80E8"/>
</svg>
