<svg xmlns="http://www.w3.org/2000/svg" version="1.1" xmlns:xlink="http://www.w3.org/1999/xlink" width="512" height="512" x="0" y="0" viewBox="0 0 511 511.999" style="enable-background:new 0 0 512 512" xml:space="preserve" class=""><g transform="matrix(1,2.4492935982947064e-16,-2.4492935982947064e-16,1,95.00000000000003,-5.684341886080802e-14)"><path d="m180.504.023-29-.023v91.027h29zM165.504 211.02c8.27 0 15-6.727 15-14.997s-6.73-15-15-15c-8.274 0-15 6.73-15 15s6.726 14.997 15 14.997zm0 0" fill="#000000" opacity="1" data-original="#000000" class=""></path><path d="M275.508 61.031h-65.004v45c0 8.281-6.715 15-15 15h-59c-8.285 0-15-6.719-15-15v-45H55.5c-30.328 0-55 24.672-55 54.996V457c0 30.328 24.672 55 55 55h220.008c30.324 0 55-24.672 55-55V116.027c0-30.324-24.676-54.996-55-54.996zM90.5 287.008c0-26.594 14.11-52.078 37.672-65.883-20.027-29.684 1.305-70.102 37.332-70.102 35.922 0 57.332 40.243 37.406 69.98 22.633 13.063 37.594 37.302 37.594 65.013v29.996c0 8.285-6.715 15.004-15 15.004h-120c-8.285 0-15.004-6.72-15.004-15.004zm45.004 163.996H75.5c-8.281 0-15-6.715-15-15s6.719-15 15-15h60.004c8.281 0 15 6.715 15 15s-6.719 15-15 15zm120 0h-60c-8.285 0-15-6.715-15-15s6.715-15 15-15h60c8.285 0 15 6.715 15 15s-6.715 15-15 15zm0-59.996H75.5c-8.281 0-15-6.715-15-15 0-8.281 6.719-15 15-15h180.004c8.285 0 15 6.719 15 15 0 8.285-6.715 15-15 15zm0 0" fill="#000000" opacity="1" data-original="#000000" class=""></path><path d="M210.504 286.016c0-24.32-19.774-44.5-44.078-44.985-25.356-.5-45.922 20.535-45.922 45.977v14.004h90zm0 0" fill="#000000" opacity="1" data-original="#000000" class=""></path></g></svg>