<svg xmlns="http://www.w3.org/2000/svg" version="1.1" xmlns:xlink="http://www.w3.org/1999/xlink" width="512" height="512" x="0" y="0" viewBox="0 0 46 60" style="enable-background:new 0 0 512 512" xml:space="preserve" class=""><g><path d="M0 24v33a3 3 0 0 0 3 3h40a3 3 0 0 0 3-3V24a3 3 0 0 0-3-3H3a3 3 0 0 0-3 3zm44 0v33a1 1 0 0 1-1 1H3a1 1 0 0 1-1-1V24a1 1 0 0 1 1-1h40a1 1 0 0 1 1 1zM13.416.586a2 2 0 0 0-2.828 0l-7 7A2 2 0 0 0 5 11h2v6a2 2 0 0 0 2 2h6a2 2 0 0 0 2-2v-6h2a2 2 0 0 0 1.414-3.414zM19.007 9H16a1 1 0 0 0-1 1v7H9v-7a1 1 0 0 0-1-1H5l7-7 7.005 7zM37 0h-6a2 2 0 0 0-2 2v6h-2a2 2 0 0 0-1.414 3.414l7 7a2 2 0 0 0 2.828 0l7-7A2 2 0 0 0 41 8h-2V2a2 2 0 0 0-2-2zm4 10-7 7-7-7h3a1 1 0 0 0 1-1V2h6v7a1 1 0 0 0 1 1z" fill="#3b8029" opacity="1" data-original="#000000"></path><path d="M7 44c.341-.003.68-.066 1-.184V54a3.015 3.015 0 0 0 3 3 2.977 2.977 0 0 0 2-.783A2.936 2.936 0 0 0 15 57a3 3 0 0 0 3-3V43.816c.32.118.659.18 1 .184a3 3 0 0 0 3-3v-4a4.995 4.995 0 0 0-5-5h-.026A4.948 4.948 0 0 0 18 29a5 5 0 0 0-10 0 4.948 4.948 0 0 0 1.026 3H9a5.006 5.006 0 0 0-5 5v4a3 3 0 0 0 3 3zm3-15a3 3 0 1 1 6 0 3 3 0 0 1-6 0zm-4 8a3 3 0 0 1 3-3h8a2.994 2.994 0 0 1 3 3v4a1 1 0 0 1-2 0v-4a1 1 0 0 0-2 0v17a1 1 0 0 1-1 1 .974.974 0 0 1-.712-.306A.957.957 0 0 1 14 54V44a1 1 0 0 0-2 0v10a1 1 0 0 1-1 1 .974.974 0 0 1-.712-.306A.957.957 0 0 1 10 54V37a1 1 0 0 0-2 0v4a1 1 0 0 1-2 0zM27 44c.341-.003.68-.066 1-.184V54a3.015 3.015 0 0 0 3 3 2.977 2.977 0 0 0 2-.783A2.936 2.936 0 0 0 35 57a3 3 0 0 0 3-3V43.816c.32.118.659.18 1 .184a3 3 0 0 0 3-3v-4a4.995 4.995 0 0 0-5-5h-.026A4.948 4.948 0 0 0 38 29a5 5 0 0 0-10 0 4.948 4.948 0 0 0 1.026 3H29a5.006 5.006 0 0 0-5 5v4a3 3 0 0 0 3 3zm3-15a3 3 0 1 1 6 0 3 3 0 0 1-6 0zm-4 8a3 3 0 0 1 3-3h8a2.994 2.994 0 0 1 3 3v4a1 1 0 0 1-2 0v-4a1 1 0 0 0-2 0v17a1 1 0 0 1-1 1 .974.974 0 0 1-.712-.306A.957.957 0 0 1 34 54V44a1 1 0 0 0-2 0v10a1 1 0 0 1-1 1 .974.974 0 0 1-.712-.306A.957.957 0 0 1 30 54V37a1 1 0 0 0-2 0v4a1 1 0 0 1-2 0z" fill="#3b8029" opacity="1" data-original="#000000"></path></g></svg>