<svg xmlns="http://www.w3.org/2000/svg" version="1.1" xmlns:xlink="http://www.w3.org/1999/xlink" width="512" height="512" x="0" y="0" viewBox="0 0 512 512" style="enable-background:new 0 0 512 512" xml:space="preserve" class=""><g><path d="M254.93 188.029c4.143 0 7.5-3.357 7.5-7.5v-15.442c0-4.143-3.357-7.5-7.5-7.5s-7.5 3.357-7.5 7.5v15.442c0 4.143 3.357 7.5 7.5 7.5zM211.179 428.5a7.5 7.5 0 1 0 0 15 7.5 7.5 0 0 0 0-15zm273.286-39.11h-3.621c-1.097-17.595-6.419-34.657-15.575-49.716a7.499 7.499 0 0 0-10.305-2.512 7.5 7.5 0 0 0-2.512 10.305c7.727 12.709 12.293 27.081 13.367 41.923H278.371c3.506-48.644 44.203-87.149 93.724-87.149 21.574 0 41.862 7.109 58.669 20.561a7.501 7.501 0 0 0 9.373-11.711c-11.317-9.057-24.356-15.695-38.195-19.641.521-2.256.802-4.574.802-6.918 0-16.906-13.75-30.66-30.65-30.66s-30.649 13.754-30.649 30.66c0 2.328.277 4.628.791 6.869a108.458 108.458 0 0 0-29.713 13.618l-38.529-12.938a13.236 13.236 0 0 1-9.048-12.55v-6.261c29.753-18.142 49.654-50.858 49.654-88.126v-8.43c13.936-.469 25.131-11.946 25.131-25.994s-11.195-25.525-25.131-25.994V51.748C314.6 23.214 291.34 0 262.75 0H159.608c-28.59 0-51.85 23.214-51.85 51.748v72.977c-13.936.469-25.131 11.946-25.131 25.994s11.195 25.525 25.131 25.994v8.429c0 37.27 19.902 69.986 49.656 88.128v6.26a13.238 13.238 0 0 1-9.048 12.55L58.1 322.39c-28.468 9.552-47.595 36.112-47.595 66.091V504.5c0 4.143 3.357 7.5 7.5 7.5s7.5-3.357 7.5-7.5V388.48c0-23.525 15.017-44.371 37.368-51.87l14.485-4.864c6.584 9.997 16.266 29.174 14.672 53.791-1.223 18.957-8.608 33.593-14.578 42.517a27.425 27.425 0 0 0-4.688 15.356v61.09c0 4.143 3.357 7.5 7.5 7.5s7.5-3.357 7.5-7.5v-61.09c0-2.494.737-4.909 2.144-7 7.004-10.469 15.653-27.625 17.091-49.906 1.703-26.305-7.53-47.285-15.013-59.668l15.504-5.205a331.48 331.48 0 0 0 96.189 149.286V504.5c0 4.143 3.357 7.5 7.5 7.5s7.5-3.357 7.5-7.5v-33.593a333.13 333.13 0 0 0 29.687-30.035c3.017 2.712 6.993 4.378 11.359 4.378h67.271v4.064c0 6.995 2.92 13.317 7.599 17.826v37.36c0 4.143 3.357 7.5 7.5 7.5s7.5-3.357 7.5-7.5v-30.518c3.278.316 45.822-.043 47.261-.304V504.5c0 4.143 3.357 7.5 7.5 7.5s7.5-3.357 7.5-7.5v-39.852a24.64 24.64 0 0 0 5.339-15.333v-4.064h67.271c9.391 0 17.03-7.64 17.03-17.03v-21.79c-.001-9.397-7.641-17.041-17.031-17.041zm-112.37-120.52c8.63 0 15.65 7.025 15.65 15.66a15.7 15.7 0 0 1-.474 3.801 108.368 108.368 0 0 0-15.177-1.091c-5.152 0-10.219.368-15.182 1.063a15.715 15.715 0 0 1-.467-3.773c0-8.634 7.021-15.66 15.65-15.66zM314.6 139.737c5.662.452 10.131 5.205 10.131 10.981s-4.469 10.529-10.131 10.981zM107.759 161.7c-5.662-.452-10.131-5.205-10.131-10.981s4.469-10.529 10.131-10.981zm15 23.442v-66.754a117.03 117.03 0 0 0 31.621-10.587 117.206 117.206 0 0 0 24.288-16.303 202.663 202.663 0 0 0 34.984 16.905 7.499 7.499 0 0 0 9.634-4.437 7.499 7.499 0 0 0-4.437-9.634 187.785 187.785 0 0 1-34.467-16.934c-4.352-2.726-10.035-2.219-13.817 1.23a102.2 102.2 0 0 1-22.924 15.769 101.956 101.956 0 0 1-24.883 8.699v-51.35c0-20.263 16.53-36.748 36.85-36.748H262.75c20.319 0 36.85 16.485 36.85 36.748v53.438a187.722 187.722 0 0 1-47.998-2.052c-4.079-.701-7.962 2.031-8.669 6.112a7.501 7.501 0 0 0 6.112 8.669 202.733 202.733 0 0 0 50.555 2.323v64.904c0 48.634-39.665 88.2-88.42 88.2-48.756.003-88.421-39.564-88.421-88.198zm111.979 142.754 14.026-4.563v23.336l-14.026-4.563a24.535 24.535 0 0 0 0-14.21zm-9.121-12.806c-4.059-2.951-9.046-4.698-14.437-4.698s-10.378 1.747-14.437 4.698l-23.206-7.551a11.406 11.406 0 0 0-5.768-.315l-5.798-5.798a28.173 28.173 0 0 0 10.394-20.632c11.992 4.863 25.094 7.55 38.815 7.55s26.824-2.687 38.816-7.55a28.172 28.172 0 0 0 10.352 20.598l-5.819 5.819a11.402 11.402 0 0 0-5.703.328zM220.788 335c0 5.298-4.311 9.608-9.608 9.608-5.299 0-9.609-4.311-9.609-9.608s4.311-9.608 9.609-9.608 9.608 4.31 9.608 9.608zm-33.168 7.105-14.026 4.564v-23.338l14.026 4.564c-.68 2.251-1.05 4.635-1.05 7.105s.37 4.854 1.05 7.105zm55.075 64.325v17.927a316.964 316.964 0 0 1-31.521 33.141 316.537 316.537 0 0 1-89.462-140.644l25.808-8.666 11.075 11.075v32.348c0 3.641 1.76 7.093 4.707 9.232a11.45 11.45 0 0 0 10.233 1.619l23.207-7.551c4.059 2.951 9.047 4.698 14.437 4.698s10.379-1.747 14.437-4.698l23.206 7.552c3.446 1.12 7.28.526 10.234-1.619a11.443 11.443 0 0 0 4.707-9.232V319.19l11.02-11.02 23.558 7.911c-20.065 18.486-33.201 44.384-34.997 73.309h-3.62c-9.389 0-17.029 7.644-17.029 17.04zm159.499 42.884c0 5.387-4.382 9.769-9.769 9.769h-40.661c-5.387 0-9.769-4.382-9.769-9.769V430.42h60.198v18.894zm84.301-21.094c0 1.119-.911 2.03-2.03 2.03h-67.271c.262-8.088-6.349-14.827-14.421-14.83h-61.356c-8.073-.013-14.665 6.746-14.421 14.83h-67.271a2.033 2.033 0 0 1-2.03-2.03v-21.79c0-1.125.911-2.04 2.03-2.04h224.739c1.119 0 2.03.915 2.03 2.04v21.79zM211.179 398.5a7.5 7.5 0 1 0 0 15 7.5 7.5 0 0 0 0-15zm-43.75-240.913a7.499 7.499 0 0 0-7.5 7.5v15.442c0 4.143 3.357 7.5 7.5 7.5s7.5-3.357 7.5-7.5v-15.442a7.5 7.5 0 0 0-7.5-7.5zm43.75 210.913a7.5 7.5 0 1 0 0 15 7.5 7.5 0 0 0 0-15zm19.649-146.81a7.498 7.498 0 0 0-10.453-1.795c-1.654 1.168-5.159 3.1-9.765 2.938-4.104-.147-7.163-1.901-8.621-2.934a7.5 7.5 0 0 0-8.67 12.24c3.297 2.336 10.426 5.703 17.854 5.703 8.492 0 14.794-3.531 17.859-5.699a7.497 7.497 0 0 0 1.796-10.453z" fill="#3B8029" opacity="1" data-original="#000000" class=""></path></g></svg>