<svg xmlns="http://www.w3.org/2000/svg" version="1.1" xmlns:xlink="http://www.w3.org/1999/xlink" width="512" height="512" x="0" y="0" viewBox="0 0 24 24" style="enable-background:new 0 0 512 512" xml:space="preserve"><g><g fill="#000"><path d="M21.484 10.027C16.45 5.256 8.698 5.005 3.378 9.274c-.295.237-.583.488-.862.753a.75.75 0 0 1-1.032-1.089c.31-.293.628-.57.955-.833 5.9-4.736 14.494-4.458 20.077.833a.75.75 0 0 1-1.032 1.089z" fill="#3B8029" opacity="1" data-original="#000000"></path><path d="M4.47 12.37c4.159-4.16 10.901-4.16 15.06 0a.75.75 0 0 1-1.06 1.06 9.15 9.15 0 0 0-12.94 0 .75.75 0 1 1-1.06-1.06z" fill="#3B8029" opacity="1" data-original="#000000"></path><path d="M7.47 15.627a6.407 6.407 0 0 1 9.06 0 .75.75 0 0 1-1.06 1.06 4.907 4.907 0 0 0-6.94 0 .75.75 0 1 1-1.06-1.06zM12 20a1.25 1.25 0 1 0 0-2.5 1.25 1.25 0 0 0 0 2.5z" fill="#3B8029" opacity="1" data-original="#000000"></path></g></g></svg>